<svg version="1.1" id="Layer_1" xmlns="http://www.w3.org/2000/svg" xmlns:xlink="http://www.w3.org/1999/xlink" x="0px" y="0px"
	 width="100%" viewBox="0 0 567 567" enable-background="new 0 0 567 567" xml:space="preserve">
<path fill="#FFFFFF" opacity="1.000000" stroke="none" 
	d="
M381.000000,568.000000 
	C254.000000,568.000000 127.500000,568.000000 1.000000,568.000000 
	C1.000000,379.000000 1.000000,190.000000 1.000000,1.000000 
	C190.000000,1.000000 379.000000,1.000000 568.000000,1.000000 
	C568.000000,190.000000 568.000000,379.000000 568.000000,568.000000 
	C505.833344,568.000000 443.666656,568.000000 381.000000,568.000000 
M79.371529,349.605621 
	C75.404572,371.549988 71.430153,393.493011 67.475296,415.439545 
	C66.307137,421.921997 68.224220,423.860535 74.231911,421.808197 
	C97.839828,413.743195 121.397682,405.531647 145.850540,397.586121 
	C151.139740,398.243530 156.415558,399.046417 161.720352,399.534058 
	C190.372696,402.168060 217.137619,397.368317 240.655853,379.540802 
	C242.110748,378.437927 245.467270,377.665924 246.356339,378.476349 
	C247.905197,379.888184 248.932343,382.650726 248.942337,384.852692 
	C249.049026,408.346710 248.746399,431.843201 248.943481,455.335754 
	C249.003159,462.449646 249.576248,469.704559 251.104385,476.632324 
	C254.984680,494.223755 265.923645,505.579285 283.697815,509.113892 
	C291.934723,510.751892 300.534821,510.953125 308.978760,511.047150 
	C316.878967,511.135162 318.734924,508.763641 318.979370,500.682495 
	C319.034760,498.850616 319.022339,497.016388 319.022522,495.183228 
	C319.025482,465.184692 318.983246,435.186035 319.052246,405.187653 
	C319.072510,396.370026 322.272247,394.015747 330.610260,396.387054 
	C348.830750,401.569031 367.256714,401.397614 385.493164,397.271149 
	C441.082458,384.692566 476.688782,331.323669 468.113770,274.064484 
	C458.090302,207.132858 388.603699,165.254959 324.859589,187.728683 
	C304.884064,194.771271 288.580627,207.106766 274.411652,222.576660 
	C268.740570,228.768402 266.274475,228.464493 260.769226,222.278442 
	C255.691849,216.573135 250.729401,210.557617 244.774887,205.876175 
	C216.177811,183.393143 183.971115,176.095886 148.415146,184.354843 
	C136.997482,187.006973 135.271927,185.730835 134.936752,173.949173 
	C134.879913,171.950699 134.861694,169.950546 134.860779,167.951157 
	C134.848007,140.118317 134.855667,112.285461 134.806976,84.452690 
	C134.802917,82.138191 135.091385,79.454582 134.059006,77.603226 
	C132.751144,75.257843 130.455841,72.227676 128.194397,71.851868 
	C114.492958,69.575035 100.878815,70.022392 88.293785,76.812775 
	C70.523720,86.400803 64.642502,102.445831 64.676338,121.528374 
	C64.753761,165.190018 64.739861,208.852127 64.957932,252.513077 
	C65.038635,268.670227 65.379913,284.837769 66.121498,300.976715 
	C66.900299,317.925415 74.653214,333.021698 79.371529,349.605621 
M505.783295,138.707870 
	C500.131165,134.610153 494.712067,130.133362 488.781982,126.487747 
	C472.778351,116.649231 455.333191,111.035645 436.519745,109.901848 
	C433.146149,109.698532 429.940582,110.184013 429.049744,114.094383 
	C428.158142,118.008064 428.361816,122.053322 432.326904,124.228973 
	C434.866302,125.622345 437.903870,126.391731 440.807709,126.794022 
	C480.155273,132.244934 519.960388,158.484543 527.220398,211.140930 
	C528.263672,218.708130 528.683716,226.364990 529.841858,233.911362 
	C530.631470,239.055954 533.817871,240.746048 539.393616,240.066025 
	C544.090942,239.493149 545.418335,236.575089 545.151672,232.351959 
	C544.743286,225.883163 544.682312,219.375809 543.931763,212.948120 
	C540.521118,183.736877 528.835876,158.673843 505.783295,138.707870 
M468.761261,164.687897 
	C478.383820,170.216003 485.776337,177.907364 491.139618,187.608078 
	C497.657562,199.397263 499.884705,212.265076 500.924561,225.471848 
	C501.130768,228.090836 501.528748,230.807449 502.474976,233.230408 
	C504.109833,237.416855 507.684326,238.509079 511.894684,237.983139 
	C516.067078,237.461929 517.268372,234.449265 517.577393,230.913544 
	C517.779053,228.605179 517.679565,226.255829 517.543762,223.934860 
	C515.472961,188.545090 499.868927,161.735977 467.562500,145.714722 
	C457.641113,140.794540 447.031158,137.974014 435.956970,137.228745 
	C431.510925,136.929535 428.082153,138.615234 427.193237,143.493408 
	C426.361481,148.058044 428.402527,151.348007 433.184845,153.057739 
	C434.735870,153.612244 436.450317,153.699921 438.018402,154.217880 
	C448.073395,157.539291 458.108398,160.921021 468.761261,164.687897 
M465.884552,198.765884 
	C467.947571,205.890198 470.199829,212.967255 471.994904,220.158447 
	C472.912689,223.835251 472.630829,227.814545 473.575134,231.480972 
	C474.799805,236.236084 478.741364,237.177475 483.078583,236.721298 
	C486.796997,236.330231 488.647797,234.103088 488.795807,230.380310 
	C489.358215,216.236877 486.842407,202.788467 479.026031,190.786987 
	C468.104431,174.017670 452.733582,165.293564 432.432404,166.089294 
	C428.967804,166.225082 425.628937,166.900711 424.868439,171.104843 
	C424.122803,175.227005 425.095367,178.892029 429.032654,180.901184 
	C431.197876,182.006042 433.720673,182.533722 436.144806,182.986664 
	C447.462982,185.101334 458.298462,188.077927 465.884552,198.765884 
z"/>
<path fill="#154525" opacity="1.000000" stroke="none" 
	d="
M79.775543,348.807739 
	C74.653214,333.021698 66.900299,317.925415 66.121498,300.976715 
	C65.379913,284.837769 65.038635,268.670227 64.957932,252.513077 
	C64.739861,208.852127 64.753761,165.190018 64.676338,121.528374 
	C64.642502,102.445831 70.523720,86.400803 88.293785,76.812775 
	C100.878815,70.022392 114.492958,69.575035 128.194397,71.851868 
	C130.455841,72.227676 132.751144,75.257843 134.059006,77.603226 
	C135.091385,79.454582 134.802917,82.138191 134.806976,84.452690 
	C134.855667,112.285461 134.848007,140.118317 134.860779,167.951157 
	C134.861694,169.950546 134.879913,171.950699 134.936752,173.949173 
	C135.271927,185.730835 136.997482,187.006973 148.415146,184.354843 
	C183.971115,176.095886 216.177811,183.393143 244.774887,205.876175 
	C250.729401,210.557617 255.691849,216.573135 260.769226,222.278442 
	C266.274475,228.464493 268.740570,228.768402 274.411652,222.576660 
	C288.580627,207.106766 304.884064,194.771271 324.859589,187.728683 
	C388.603699,165.254959 458.090302,207.132858 468.113770,274.064484 
	C476.688782,331.323669 441.082458,384.692566 385.493164,397.271149 
	C367.256714,401.397614 348.830750,401.569031 330.610260,396.387054 
	C322.272247,394.015747 319.072510,396.370026 319.052246,405.187653 
	C318.983246,435.186035 319.025482,465.184692 319.022522,495.183228 
	C319.022339,497.016388 319.034760,498.850616 318.979370,500.682495 
	C318.734924,508.763641 316.878967,511.135162 308.978760,511.047150 
	C300.534821,510.953125 291.934723,510.751892 283.697815,509.113892 
	C265.923645,505.579285 254.984680,494.223755 251.104385,476.632324 
	C249.576248,469.704559 249.003159,462.449646 248.943481,455.335754 
	C248.746399,431.843201 249.049026,408.346710 248.942337,384.852692 
	C248.932343,382.650726 247.905197,379.888184 246.356339,378.476349 
	C245.467270,377.665924 242.110748,378.437927 240.655853,379.540802 
	C217.137619,397.368317 190.372696,402.168060 161.720352,399.534058 
	C156.415558,399.046417 151.139740,398.243530 145.140717,397.295288 
	C120.328972,387.883026 99.274048,374.689392 84.693596,352.687561 
	C83.597832,351.034088 81.439781,350.084534 79.775543,348.807739 
M351.001007,251.998459 
	C351.001007,251.998459 350.950134,251.952011 350.156525,251.895370 
	C327.473663,256.308197 315.504822,278.471039 319.593933,299.761749 
	C323.116608,318.103577 339.149780,331.527039 357.728943,332.892334 
	C366.372650,333.527496 374.496460,331.895966 381.904144,325.556274 
	C383.651611,324.634918 385.536255,323.904419 387.125183,322.762482 
	C401.930237,312.121674 406.919067,291.382660 398.945374,273.935638 
	C390.414856,255.270096 371.881714,246.228333 351.576538,251.093887 
	C351.370789,251.376999 351.165009,251.660110 351.001007,251.998459 
M163.017502,252.302368 
	C162.238449,252.591309 161.450638,252.858765 160.681625,253.172333 
	C142.666306,260.518158 131.708267,280.018005 134.812180,299.197906 
	C137.710068,317.104828 154.925537,332.280457 173.452988,333.260162 
	C194.635956,334.380280 213.932129,319.065063 217.040466,298.665161 
	C220.576279,275.459534 209.029526,256.739532 187.946945,251.501144 
	C179.841675,249.487244 171.790573,249.775314 163.017502,252.302368 
z"/>
<path fill="#4B8E45" opacity="1.000000" stroke="none" 
	d="
M506.057068,138.933624 
	C528.835876,158.673843 540.521118,183.736877 543.931763,212.948120 
	C544.682312,219.375809 544.743286,225.883163 545.151672,232.351959 
	C545.418335,236.575089 544.090942,239.493149 539.393616,240.066025 
	C533.817871,240.746048 530.631470,239.055954 529.841858,233.911362 
	C528.683716,226.364990 528.263672,218.708130 527.220398,211.140930 
	C519.960388,158.484543 480.155273,132.244934 440.807709,126.794022 
	C437.903870,126.391731 434.866302,125.622345 432.326904,124.228973 
	C428.361816,122.053322 428.158142,118.008064 429.049744,114.094383 
	C429.940582,110.184013 433.146149,109.698532 436.519745,109.901848 
	C455.333191,111.035645 472.778351,116.649231 488.781982,126.487747 
	C494.712067,130.133362 500.131165,134.610153 506.057068,138.933624 
z"/>
<path fill="#498C44" opacity="1.000000" stroke="none" 
	d="
M79.573532,349.206665 
	C81.439781,350.084534 83.597832,351.034088 84.693596,352.687561 
	C99.274048,374.689392 120.328972,387.883026 144.702515,397.189484 
	C121.397682,405.531647 97.839828,413.743195 74.231911,421.808197 
	C68.224220,423.860535 66.307137,421.921997 67.475296,415.439545 
	C71.430153,393.493011 75.404572,371.549988 79.573532,349.206665 
z"/>
<path fill="#4B8E45" opacity="1.000000" stroke="none" 
	d="
M468.455627,164.485413 
	C458.108398,160.921021 448.073395,157.539291 438.018402,154.217880 
	C436.450317,153.699921 434.735870,153.612244 433.184845,153.057739 
	C428.402527,151.348007 426.361481,148.058044 427.193237,143.493408 
	C428.082153,138.615234 431.510925,136.929535 435.956970,137.228745 
	C447.031158,137.974014 457.641113,140.794540 467.562500,145.714722 
	C499.868927,161.735977 515.472961,188.545090 517.543762,223.934860 
	C517.679565,226.255829 517.779053,228.605179 517.577393,230.913544 
	C517.268372,234.449265 516.067078,237.461929 511.894684,237.983139 
	C507.684326,238.509079 504.109833,237.416855 502.474976,233.230408 
	C501.528748,230.807449 501.130768,228.090836 500.924561,225.471848 
	C499.884705,212.265076 497.657562,199.397263 491.139618,187.608078 
	C485.776337,177.907364 478.383820,170.216003 468.455627,164.485413 
z"/>
<path fill="#4C8E46" opacity="1.000000" stroke="none" 
	d="
M465.686829,198.458481 
	C458.298462,188.077927 447.462982,185.101334 436.144806,182.986664 
	C433.720673,182.533722 431.197876,182.006042 429.032654,180.901184 
	C425.095367,178.892029 424.122803,175.227005 424.868439,171.104843 
	C425.628937,166.900711 428.967804,166.225082 432.432404,166.089294 
	C452.733582,165.293564 468.104431,174.017670 479.026031,190.786987 
	C486.842407,202.788467 489.358215,216.236877 488.795807,230.380310 
	C488.647797,234.103088 486.796997,236.330231 483.078583,236.721298 
	C478.741364,237.177475 474.799805,236.236084 473.575134,231.480972 
	C472.630829,227.814545 472.912689,223.835251 471.994904,220.158447 
	C470.199829,212.967255 467.947571,205.890198 465.686829,198.458481 
z"/>
<path fill="#FDFEFE" opacity="1.000000" stroke="none" 
	d="
M163.403046,252.192154 
	C171.790573,249.775314 179.841675,249.487244 187.946945,251.501144 
	C209.029526,256.739532 220.576279,275.459534 217.040466,298.665161 
	C213.932129,319.065063 194.635956,334.380280 173.452988,333.260162 
	C154.925537,332.280457 137.710068,317.104828 134.812180,299.197906 
	C131.708267,280.018005 142.666306,260.518158 160.681625,253.172333 
	C161.450638,252.858765 162.238449,252.591309 163.403046,252.192154 
z"/>
<path fill="#FDFEFD" opacity="1.000000" stroke="none" 
	d="
M352.131714,251.096664 
	C371.881714,246.228333 390.414856,255.270096 398.945374,273.935638 
	C406.919067,291.382660 401.930237,312.121674 387.125183,322.762482 
	C385.536255,323.904419 383.651611,324.634918 381.128998,325.470337 
	C379.029541,325.247955 377.707855,325.073517 376.380493,324.980774 
	C349.459442,323.099701 326.227386,293.866699 343.606201,263.783295 
	C345.926941,259.766052 348.496033,255.892242 350.950134,251.951996 
	C350.950134,251.952011 351.001007,251.998459 351.243439,251.947525 
	C351.701141,251.629944 351.916412,251.363297 352.131714,251.096664 
z"/>
<path fill="#498C44" opacity="1.000000" stroke="none" 
	d="
M350.553314,251.923676 
	C348.496033,255.892242 345.926941,259.766052 343.606201,263.783295 
	C326.227386,293.866699 349.459442,323.099701 376.380493,324.980774 
	C377.707855,325.073517 379.029541,325.247955 380.769836,325.592163 
	C374.496460,331.895966 366.372650,333.527496 357.728943,332.892334 
	C339.149780,331.527039 323.116608,318.103577 319.593933,299.761749 
	C315.504822,278.471039 327.473663,256.308197 350.553314,251.923676 
z"/>
<path fill="#498C44" opacity="1.000000" stroke="none" 
	d="
M351.854126,251.095276 
	C351.916412,251.363297 351.701141,251.629944 351.222565,251.919907 
	C351.165009,251.660110 351.370789,251.376999 351.854126,251.095276 
z"/>
</svg>